<svg width="800" height="800" fill="#bd4b71" viewBox="0 0 1920 1920" xmlns="http://www.w3.org/2000/svg"><path d="M910.001 203.918A203.92 203.92 0 0 1 1035.88 15.522a203.93 203.93 0 0 1 222.23 44.204 203.9 203.9 0 0 1 55.81 104.409 204 204 0 0 1-11.6 117.819 204 204 0 0 1-75.11 91.516 203.9 203.9 0 0 1-113.29 34.366 203.7 203.7 0 0 1-78.08-15.456 203.7 203.7 0 0 1-66.186-44.198 203.6 203.6 0 0 1-44.197-66.189 203.6 203.6 0 0 1-15.456-78.075m-742.577 709.39 290.887-290.886h586.729L460.789 1206.68a207.45 207.45 0 0 1-146.682 60.76 207.46 207.46 0 0 1-146.683-60.76 207.47 207.47 0 0 1-60.757-146.69 207.44 207.44 0 0 1 60.757-146.682M1738.81 1027.77l-284.7 285.44H867.136L1444.7 734.406a207.7 207.7 0 0 1 354.75 146.42 207.7 207.7 0 0 1-60.64 146.944M587.075 1602.79a203.93 203.93 0 0 0-34.366 113.29A203.93 203.93 0 0 0 756.627 1920c40.33 0 79.755-11.96 113.29-34.37a203.87 203.87 0 0 0 75.104-91.51 203.95 203.95 0 0 0 11.604-117.83 203.87 203.87 0 0 0-55.808-104.4 203.84 203.84 0 0 0-104.408-55.81 203.86 203.86 0 0 0-117.819 11.61 203.84 203.84 0 0 0-91.515 75.1"/></svg>